<mxfile host="app.diagrams.net" modified="2024-05-22T04:39:49.130Z" agent="Mozilla/5.0 (Macintosh; Intel Mac OS X 10_15_7) AppleWebKit/537.36 (KHTML, like Gecko) Chrome/124.0.0.0 Safari/537.36" etag="0f-npt3AgMQqKLZLxclp" version="24.4.4" type="device">
  <diagram name="Page-1" id="Bhda7sSRsYF8FWivSYj7">
    <mxGraphModel dx="954" dy="606" grid="1" gridSize="10" guides="1" tooltips="1" connect="1" arrows="1" fold="1" page="1" pageScale="1" pageWidth="827" pageHeight="1169" math="0" shadow="0">
      <root>
        <mxCell id="0" />
        <mxCell id="1" parent="0" />
        <mxCell id="YpVSY3_8zx4hDIwCIy0z-3" value="" style="edgeStyle=orthogonalEdgeStyle;rounded=0;orthogonalLoop=1;jettySize=auto;html=1;" edge="1" parent="1" source="YpVSY3_8zx4hDIwCIy0z-1" target="YpVSY3_8zx4hDIwCIy0z-2">
          <mxGeometry relative="1" as="geometry" />
        </mxCell>
        <mxCell id="YpVSY3_8zx4hDIwCIy0z-5" value="" style="edgeStyle=orthogonalEdgeStyle;rounded=0;orthogonalLoop=1;jettySize=auto;html=1;" edge="1" parent="1" source="YpVSY3_8zx4hDIwCIy0z-1" target="YpVSY3_8zx4hDIwCIy0z-4">
          <mxGeometry relative="1" as="geometry" />
        </mxCell>
        <mxCell id="YpVSY3_8zx4hDIwCIy0z-7" value="" style="edgeStyle=orthogonalEdgeStyle;rounded=0;orthogonalLoop=1;jettySize=auto;html=1;" edge="1" parent="1" source="YpVSY3_8zx4hDIwCIy0z-1" target="YpVSY3_8zx4hDIwCIy0z-6">
          <mxGeometry relative="1" as="geometry" />
        </mxCell>
        <mxCell id="YpVSY3_8zx4hDIwCIy0z-1" value="Home" style="rounded=0;whiteSpace=wrap;html=1;fontSize=20;fillColor=#f8cecc;strokeColor=#b85450;" vertex="1" parent="1">
          <mxGeometry x="320" y="70" width="120" height="60" as="geometry" />
        </mxCell>
        <mxCell id="YpVSY3_8zx4hDIwCIy0z-2" value="About" style="rounded=0;whiteSpace=wrap;html=1;fontSize=20;fillColor=#fff2cc;strokeColor=#d6b656;" vertex="1" parent="1">
          <mxGeometry x="50" y="220" width="120" height="60" as="geometry" />
        </mxCell>
        <mxCell id="YpVSY3_8zx4hDIwCIy0z-4" value="Contact us" style="rounded=0;whiteSpace=wrap;html=1;fontSize=20;fillColor=#fff2cc;strokeColor=#d6b656;" vertex="1" parent="1">
          <mxGeometry x="320" y="220" width="120" height="60" as="geometry" />
        </mxCell>
        <mxCell id="YpVSY3_8zx4hDIwCIy0z-9" value="" style="edgeStyle=orthogonalEdgeStyle;rounded=0;orthogonalLoop=1;jettySize=auto;html=1;" edge="1" parent="1" source="YpVSY3_8zx4hDIwCIy0z-6" target="YpVSY3_8zx4hDIwCIy0z-8">
          <mxGeometry relative="1" as="geometry" />
        </mxCell>
        <mxCell id="YpVSY3_8zx4hDIwCIy0z-11" value="" style="edgeStyle=orthogonalEdgeStyle;rounded=0;orthogonalLoop=1;jettySize=auto;html=1;" edge="1" parent="1" source="YpVSY3_8zx4hDIwCIy0z-6" target="YpVSY3_8zx4hDIwCIy0z-10">
          <mxGeometry relative="1" as="geometry" />
        </mxCell>
        <mxCell id="YpVSY3_8zx4hDIwCIy0z-6" value="Services" style="rounded=0;whiteSpace=wrap;html=1;fontSize=20;fillColor=#fff2cc;strokeColor=#d6b656;" vertex="1" parent="1">
          <mxGeometry x="590" y="270" width="120" height="60" as="geometry" />
        </mxCell>
        <mxCell id="YpVSY3_8zx4hDIwCIy0z-8" value="Web design" style="whiteSpace=wrap;html=1;fontSize=20;rounded=0;fillColor=#dae8fc;strokeColor=#6c8ebf;" vertex="1" parent="1">
          <mxGeometry x="330" y="430" width="120" height="60" as="geometry" />
        </mxCell>
        <mxCell id="YpVSY3_8zx4hDIwCIy0z-10" value="Web Development" style="whiteSpace=wrap;html=1;fontSize=20;rounded=0;fillColor=#dae8fc;strokeColor=#6c8ebf;" vertex="1" parent="1">
          <mxGeometry x="590" y="430" width="120" height="60" as="geometry" />
        </mxCell>
      </root>
    </mxGraphModel>
  </diagram>
</mxfile>
